<svg class="logo__svg" xmlns="http://www.w3.org/2000/svg" viewBox="0 0 2000 1085" width="401" height="218"><defs><style>.cls-1,.cls-3{fill:#09487e;}.cls-2,.cls-5{fill:#00919e;}.cls-2,.cls-3{opacity:0.2;}.cls-4{fill:#005262;}</style></defs><path class="cls-1" d="M792.61,261.55l27.76-8.4,75.34,123.62h.47l-1.87-120.36h29.86l-1.4,156.28-30.09,8.4L819.21,298.16l-.47.47,2.33,119.19H791.22Z"/><path class="cls-1" d="M979,362.54c.23,16.1,7.46,35.69,27,35.69,11.2,0,20.06-7.46,27.3-15.16L1049.65,398c-12.36,13.76-28.69,23.09-47.81,23.09-29.86,0-51.32-24.72-51.32-61.58,0-31.25,19.36-62.51,53.65-62.51,33.12,0,48.52,24.49,48.52,65.54Zm46.65-20.06c-.7-12.59-6.54-25.42-21.46-25.42-12.83,0-22.63,13.76-23.8,25.42Z"/><path class="cls-1" d="M1077.41,242.88h28.45l-1.39,174.94H1076Z"/><path class="cls-1" d="M1160.44,362.54c.24,16.1,7.46,35.69,27.06,35.69,11.2,0,20.06-7.46,27.29-15.16L1231.12,398c-12.37,13.76-28.69,23.09-47.82,23.09-29.85,0-51.32-24.72-51.32-61.58,0-31.25,19.36-62.51,53.65-62.51,33.12,0,48.52,24.49,48.52,65.54Zm46.65-20.06c-.7-12.59-6.53-25.42-21.46-25.42-12.82,0-22.62,13.76-23.79,25.42Z"/><path class="cls-1" d="M1256.54,300.27h28v14.22h.47A50.65,50.65,0,0,1,1323,297c24.72,0,31.25,17.26,31.25,35.45,0,11.67-.23,18.9-.23,26.36l-.7,59h-28.46l.24-29.39c.23-18.19.46-32.19.46-46.18,0-14.46-3.49-19.59-15.39-19.59-8.87,0-18.66,8.39-25.89,15.39l-.47,79.77h-28.46Z"/><path class="cls-1" d="M1557,402.19c-14,12.83-28.93,18.9-48.75,18.9-47.59,0-56.91-36.39-56.91-49.68,0-22.4,15.86-40.12,32.88-51.09-7.7-9.56-13.06-18.89-13.06-31.95,0-22.16,17.26-35.22,38-35.22,18.89,0,35.45,12.59,35.45,32.89,0,16.56-10.73,28-24.72,37.32l33.35,36.38c3-10.73,3.74-22.16,4.2-33.35h25.66c.23,18.43-2.57,36.85-10.73,53.65l22.86,25.65L1575.63,423Zm-57.85-64.37c-9.33,7.46-18,16.79-18,29.16,0,17.72,12.83,29.85,29.39,29.85a40.53,40.53,0,0,0,29.39-13.29Zm-3.73-50.15c0,4.67,2.8,11,10.26,19.13,8.86-6.53,14.7-13.53,14.7-20.06,0-7-4.67-12.13-11.44-12.13C1500.29,274.61,1495.39,279,1495.39,287.67Z"/><path class="cls-1" d="M794,653.35c7.46,5.13,19.59,11,28.45,11,16.56,0,25.89-10.5,25.89-23.33-.23-32.19-66.24-18.43-66.24-73.47,0-26.36,21.46-46.88,53.88-46.88,16.1,0,31.72,5.59,45.49,13.52l-12.6,21.46c-9.8-5.36-18.89-10.73-30.56-10.73-13.53,0-26.36,7.23-26.36,21.7,0,31.72,67.65,21.69,67.65,73.24,0,27.52-22.16,48.75-53.41,48.75-15.63,0-30.33-4.44-43.86-12.37Z"/><path class="cls-1" d="M993.68,666.18c-11.43,14-25.19,22.39-43.85,22.39-33.59,0-51.09-31.73-51.09-60.18,0-32.42,20.3-63.91,55.28-63.91,17.26,0,30.56,8.16,41.06,19.82L979,599.93c-7.23-5.83-13.76-11.19-23.79-11.19-17.73,0-26.59,19.12-26.59,37.08,0,24.73,11,38.49,25.19,38.49,10.5,0,17.49-6.3,24-13.06Z"/><path class="cls-1" d="M1010.23,510.36h28.46l-.47,71.61h.47a50.65,50.65,0,0,1,38-17.49c24.72,0,31.25,17.26,31.25,35.45,0,11.66-.23,18.89-.23,26.36l-.7,59h-28.46l.24-29.39c.23-18.19.46-40.58.46-49.92,0-9.09-3.49-15.86-15.39-15.86-8.87,0-18.66,8.4-25.89,15.4l-.47,79.77h-28.46Z"/><path class="cls-1" d="M1237,685.3h-28.46V671.07H1208c-8.87,10.26-22.16,17.5-36.39,17.5-25.9,0-32.66-17-32.66-39.89,0-7.23.23-14.46.23-21.93l.71-59h28.45l-.23,29.39c-.24,17-.47,33.59-.47,46.42,0,13.76,3.5,19.36,15.4,19.36,8.86,0,18.66-8.4,25.89-15.4l.46-79.77h28.46Z"/><path class="cls-1" d="M1366.64,685.3h-28.46V671.07h-.47c-8.86,10.26-22.16,17.5-36.39,17.5-25.89,0-32.65-17-32.65-39.89,0-7.23.23-14.46.23-21.93l.7-59h28.46l-.24,29.39c-.23,17-.46,33.59-.46,46.42,0,13.76,3.5,19.36,15.39,19.36,8.87,0,18.66-8.4,25.89-15.4l.47-79.77h28.46Z"/><path class="cls-1" d="M1399.29,567.74h28.45V589.2l.24.47c5.59-13.53,12.82-24.73,27.29-25.19a34.55,34.55,0,0,1,8.39,1.16L1459,592.93a36.83,36.83,0,0,0-6.77-.93c-11,0-18.89,8.16-24.72,20.53l-.7,72.77h-28.69Z"/><path class="cls-1" d="M1476.49,567.74h28.22v15.63l.47.47c7.23-11.2,20.53-19.36,35-19.36,13.76,0,25,6.29,28.69,20,8.86-12.12,23.55-20,38.48-20,26.36,0,31.73,18.89,31.73,33.82,0,28.92-.24,58.08-.24,87h-28.45l.23-46.18c0-12.13.23-28.23.23-34.52,0-8.87-5.36-14.47-14.22-14.47-8.4,0-19.36,9.57-24.26,15.63l-.94,79.54H1543.2l.23-46.18c0-12.13.23-28.23.23-34.52,0-8.87-5.36-14.47-14.22-14.47-8.4,0-19.36,9.57-24.26,15.63l-.93,79.54H1476Z"/><path class="cls-1" d="M1667.28,588.27c25.66-21,38.72-23.79,51.32-23.79,17.5,0,33.59,11,33.59,33.82,0,4.2,0,6.76-.23,9.8l-.94,33.81c-.23,5.37-.46,9.8-.46,14.7,0,6.53,3.26,11.2,6.29,11.2,1.4,0,3.5-.7,8.4-3L1772,679c-12.37,8.17-19.13,9.57-24.5,9.57-10,0-18.19-5.83-20.29-15.63-8.4,9.8-18.89,15.63-30.09,15.63-21,0-35.22-13.3-35.22-34.29,0-18.9,12.13-35.22,63-43.62V603c0-13.06-5.6-15.63-13.53-15.63-5.83,0-12.83,2.34-30.55,16.1Zm57.38,40.58c-27.05,6.07-35.68,12.6-35.68,24.5,0,8.62,6.06,13.76,14.93,13.76,5.83,0,13.53-3.73,20.29-11Z"/><path class="cls-1" d="M1787.88,567.74h28V582h.47a50.67,50.67,0,0,1,38-17.49c24.73,0,31.26,17.26,31.26,35.45,0,11.66-.23,18.89-.23,26.36l-.71,59h-28.45l.23-29.39c.24-18.19.47-32.19.47-46.18,0-14.46-3.5-19.6-15.4-19.6-8.86,0-18.66,8.4-25.89,15.4l-.46,79.77h-28.46Z"/><path class="cls-1" d="M1920.83,657.31c9.09,5.37,18.65,9.8,29.39,9.8,8.62,0,16.32-4.2,16.32-13.76,0-23.57-54.81-5.37-54.81-52.49,0-24.25,20.52-36.38,43.38-36.38,13.53,0,29.39,4,39.89,12.82l-12.13,18c-6.76-5.14-17.26-9.33-25.89-9.33-8.16,0-18.19,4.43-18.19,14,0,22.39,56.21,8.4,56.21,51.08,0,25.19-21.46,37.56-44.32,37.56a79.05,79.05,0,0,1-40.35-11.2Z"/><ellipse class="cls-2" cx="309.3" cy="1042.79" rx="236.27" ry="28.98"/><ellipse class="cls-3" cx="309.3" cy="1042.79" rx="236.27" ry="28.98"/><g class="logo__svg__frog"><path class="cls-1" d="M183.91,364.88c-1.39-3.1-4.74-5.6-8.06-4.88-3.47.75-5.36,4.4-6.84,7.63a277.81,277.81,0,0,1-29.64,49.94c-3.32,4.45-6.79,8.82-9.45,13.68a85.74,85.74,0,0,0-6.13,15.33,336,336,0,0,0-15.47,87.22c0,.61,0,1.15-.07,1.72a10.48,10.48,0,0,0,3.22,1c10,1,19.82-13.7,21.7-18.82s14-25.47,21.05-40.24,25.22-88.33,27.08-88.33c.32,0,3.56-7.58,3.8-14.2C185.22,371.52,185.31,368,183.91,364.88Z"/><path class="cls-1" d="M364.28,621.74c-4.83,1.28-8.66,4.84-12.27,8.29-10.4,9.92-49.51,16.12-56,15.37-5.74-.67-11.52.4-17.27,1-14.49,1.39-29.07-.51-43.48-2.52-5-.69-10.77-1.12-14.19,2.53-7.35,7.84.54,15.24,8.26,17.73a.74.74,0,0,1,.14-.46c3.74-4.63,55.86,9.67,92.24,11.73,36.2,2,100.46-3,105.13-12.58.45-.92,5.83-15.49,6-16.53a15.52,15.52,0,0,0-.05-5.6c-13.24-2.94-27.31-3-39.52-8.87C383.85,627.22,374.45,619.06,364.28,621.74Z"/><ellipse class="cls-4" cx="369.19" cy="141.14" rx="22.83" ry="6.59" transform="translate(17.28 321.1) rotate(-48.01)"/><path class="cls-5" d="M484.81,370.12c-13,0-26-30.22-26-30.22s-13.73,56.84-28.23,75.32-65.79,59.68-75.1,69-30,32.53-30,32.53,15.39,16.64,23.61,25.31,54.21,55.4,63.89,67.63c8.89,11.23,22.21,24.85,20,36.58-.2,1-5.58,15.61-6,16.53-4.67,9.61-68.93,14.62-105.13,12.58-36.38-2.06-88.5-16.36-92.24-11.73-2.89,3.56,40.42,56.46,47.57,64.46s27.25,25.16,31.47,26.81c7,2.75,26.92.7,25.53,9.69-.77,5-14.75-1.94-17.64,1.13s8,11.28,11.23,15.71c5.2,7.05,28.6,17.82,20.43,26.71-6.78,7.36-18.81-15.21-26.86-12.79s3.27,79.95-11,80.11c-12.46.14.7-27.53-5-28.84s-9.08,17.72-11.11,25.4-6.37,36.73-17.59,33.8,4.86-21.44,5.59-28.16,1.29-23.54-3.3-25.71-11.63,4.34-14.54,8.06-8.51,15.29-18,7.44c-7-5.79,29.85-26.89,30.9-44.24.88-14.6-9.9-54.2-15.44-67.71-5.63-7-72.42-92.09-71-108.38s17.94-21,35.73-23.6,80.61-6.22,81.66-10.35c.51-2-14.63-16.09-27.4-33.64-13.42-18.46-24.6-40.45-28-42.92-6.69-4.83-27.27-30.76-36-55.36s-33.44-92.13-35.3-92.13-20,73.55-27.08,88.33-19.17,35.13-21.05,40.24-11.66,19.83-21.7,18.82S85.62,514.13,81.64,475s-.88-76-3.84-85.2-12.36-32.3-15.73-36.19-30.31-11.72-37.41-12.4S2.78,345.1,5.28,330.82c1.6-9.12,13.18-1,27.73-.71s20.65-9,20.57-18.11c0-4.83-5-18.16-12.31-30.81-6.41-11.09-18.78-19.3-9.32-25.38,11.59-7.43,13.73,6.26,19.86,17.89C59.45,288.23,67.05,305,73.4,305c4.07,0,4.81-19.7,4-24.24s-8.43-24.86-1.54-26.58c13-3.22,11.93,28.14,12.63,33.77s2,27.64,7.84,28.76-4-28.28,6.88-28.28c7.46,0,6.71,9.63,5.21,22-1.76,14.53-5,32.42-2.29,33.2,13.72,4,18-23.35,27.67-14.26,7.1,6.67-16.76,22.92-19,32.7s-6.3,38.73.38,39.06,42.35-88.11,53.38-88.58c7.34-.31,19.91-2.38,24.93,3.48C203,327,237,386.52,237,386.52s20-72,40.17-92.48c17.44-17.69,45.93-45.06,47.51-54.44,0,0-54.35-22.64-69.84-40.68-14.29-16.64-15.92-80.17-19.48-94.69s-13.89-28.94-17-33.19-22-14-16.14-21c8.58-10.31,15.27,16.07,33.87,13.06,11.45-1.84-3.93-49.41,8-49.86S249,40.17,254,60.1,265.3,74,270.61,70.89s27-27.79,32-19.91-9.46,10.11-13.57,16.81S275,87,277.61,94.51c.91,2.66,2.37,10.47,7,16.36,8.43,10.81,24.14,16.72,17.3,24.74-5.3,6.2-19.62-18.29-29.79-13.53s2.84,49.9,9.52,59.65S317.83,208,332,198.62s9.48-33.6,25.21-52.13,55.21-57.55,98.44-47.69C482.5,104.91,494,142.64,498,174.74a24.73,24.73,0,0,1,.55,39.55c-4.44,24-20.37,35.65-20.37,46.84,0,13-1.11,64.79,8.73,72.06s40.41-2,42-6.17c.68-1.72-.34-8-4.17-12.48-5.43-6.39-18.75-11.17-11.44-17.37,5.41-4.6,14.79,6,17.55,9.65s4.21,7.11,11.69,6.93,7.76-18.86,7.21-26.52c-.91-12.76-9.8-27.12.38-29,9.87-1.87,9.29,20.35,10,25.48s.7,17.71,5.69,19c4.5,1.18,9.47-3.91,15.36-10.05,6.7-7,11.34-16.19,17-11.54,9.42,7.73-8.26,12.56-16.23,25-4.65,7.26,1.12,39.87-13.06,54.41-11.53,11.82-24.39,8.52-34,10-14.72,2.25-25.32,16.07-32.65,10.18-7-5.59,10-11.57,11.83-14.25Z"/><path class="cls-1" d="M182.5,363.87c-.8-3.31-3.33-4.59-6.65-3.87-3.47.75-5.36,4.4-6.84,7.63a277.81,277.81,0,0,1-29.64,49.94c-3.32,4.45-13.91,23.76-15.58,29a336,336,0,0,0-15.47,87.22c0,.61,0,1.15-.07,1.72a10.48,10.48,0,0,0,3.22,1c10,1,19.82-13.7,21.7-18.82s14-25.47,21.05-40.24,25.22-88.33,27.08-88.33C181.62,389.12,184.19,370.86,182.5,363.87Z"/><path class="cls-1" d="M364.28,626.88c-4.83,1.28-32.17,16.76-68.23,18.52-13.28.65-46.34.44-60.75-1.57-5-.69-12.87-.75-14.19,2.53-2.21,5.49,1,13.76,8.26,17.73a.74.74,0,0,1,.14-.46c3.74-4.63,55.86,9.67,92.24,11.73,36.2,2,100.46-3,105.13-12.58.45-.92,5.83-15.49,6-16.53a15.52,15.52,0,0,0-.05-5.6c-13.24-2.94-26.62-3.86-39.52-8.87C383.53,628,374.45,624.2,364.28,626.88Z"/><path class="cls-1" d="M498.51,214.29a24.72,24.72,0,0,0-.59-39.57,180.48,180.48,0,0,0-8.21-37.09c-5.33-4.4-10-7-14.56-8.37-14.72-4.5-55.72-.06-68.69,12.68-8,7.86-14.38,26.61-18.37,45-2.32,10.67-1.61,21.76-3.21,32.56-4.41,29.74-15.25,43.37-34,66.84C316,329.86,285.33,379,276.49,434.08c-2.87,17.87-3.56,36.67-12.14,52.6-2,3.66-4.36,7.16-5.51,11.16-11,38.1,39.74,35.46,66.6,18.89h0s20.73-23.24,30-32.53,60.6-50.5,75.1-69,28.23-75.32,28.23-75.32,9.31-41.86,19.38-57.08c-.17-9.38-.05-17.53-.05-21.69C478.14,249.94,494.07,238.27,498.51,214.29Z"/><ellipse class="cls-1" cx="369.19" cy="141.14" rx="22.83" ry="6.59" transform="translate(17.28 321.1) rotate(-48.01)"/></g></svg>